<svg xmlns="http://www.w3.org/2000/svg" xmlns:xlink="http://www.w3.org/1999/xlink" width="100" zoomAndPan="magnify" viewBox="0 0 75 60" height="80" preserveAspectRatio="xMidYMid meet" version="1.0"><defs><g/></defs><g fill="rgb(100%, 100%, 100%)" fill-opacity="1"><g transform="translate(2.929184, 37.601604)"><g><path d="M 5.457031 0 L 9.257812 0 L 9.257812 -18.089844 L 14.351562 -18.089844 L 14.351562 -21.375 L 0.363281 -21.375 L 0.363281 -18.089844 L 5.457031 -18.089844 Z M 5.457031 0 "/></g></g></g><g fill="rgb(100%, 100%, 100%)" fill-opacity="1"><g transform="translate(17.63784, 37.601604)"><g><path d="M 1.597656 0 L 5.15625 0 L 5.15625 -16.492188 L 5.214844 -16.492188 L 10.460938 0 L 13.808594 0 L 19.085938 -16.523438 L 19.144531 -16.523438 L 19.144531 0 L 22.703125 0 L 22.703125 -21.375 L 17.457031 -21.375 L 12.152344 -4.371094 L 12.121094 -4.371094 L 6.875 -21.375 L 1.597656 -21.375 Z M 1.597656 0 "/></g></g></g><g fill="rgb(100%, 100%, 100%)" fill-opacity="1"><g transform="translate(41.931243, 37.601604)"><g><path d="M 0.210938 0 L 3.949219 0 L 5.214844 -4.671875 L 12.269531 -4.671875 L 13.539062 0 L 17.304688 0 L 11.15625 -21.375 L 6.363281 -21.375 Z M 5.847656 -7.597656 L 8.742188 -18.179688 L 8.804688 -18.179688 L 11.636719 -7.597656 Z M 5.847656 -7.597656 "/></g></g></g><g fill="rgb(100%, 100%, 100%)" fill-opacity="1"><g transform="translate(59.473123, 37.601604)"><g><path d="M 1.597656 0 L 12.242188 0 L 12.242188 -3.257812 L 5.367188 -3.257812 L 5.367188 -21.375 L 1.597656 -21.375 Z M 1.597656 0 "/></g></g></g><g fill="rgb(100%, 100%, 100%)" fill-opacity="1"><g transform="translate(1.048176, 45.625495)"><g><path d="M 2.066406 -2.878906 L 2.980469 -2.878906 L 2.851562 -3.664062 L 0.230469 -3.664062 L 0.101562 -2.878906 L 1.015625 -2.878906 L 1.015625 0 L 2.066406 0 Z M 2.066406 -2.878906 "/></g></g></g><g fill="rgb(100%, 100%, 100%)" fill-opacity="1"><g transform="translate(4.128197, 45.625495)"><g><path d="M 3.128906 0 L 2.5 -1.761719 C 2.648438 -1.839844 2.773438 -1.945312 2.863281 -2.085938 C 2.953125 -2.226562 3 -2.398438 3 -2.621094 C 3 -2.816406 2.960938 -2.980469 2.886719 -3.113281 C 2.804688 -3.246094 2.703125 -3.355469 2.574219 -3.433594 C 2.445312 -3.515625 2.289062 -3.574219 2.113281 -3.609375 C 1.941406 -3.644531 1.753906 -3.664062 1.558594 -3.664062 L 0.25 -3.664062 L 0.25 0 L 1.296875 0 L 1.296875 -1.570312 L 1.558594 -1.570312 L 2.078125 0 Z M 1.296875 -2.09375 L 1.296875 -3.140625 C 1.40625 -3.140625 1.5 -3.125 1.585938 -3.09375 C 1.671875 -3.066406 1.738281 -3.023438 1.796875 -2.976562 C 1.851562 -2.925781 1.890625 -2.871094 1.921875 -2.808594 C 1.949219 -2.746094 1.964844 -2.679688 1.964844 -2.613281 C 1.964844 -2.546875 1.949219 -2.480469 1.921875 -2.421875 C 1.890625 -2.359375 1.851562 -2.304688 1.796875 -2.253906 C 1.738281 -2.203125 1.671875 -2.171875 1.585938 -2.140625 C 1.5 -2.109375 1.40625 -2.09375 1.296875 -2.09375 Z M 1.296875 -2.09375 "/></g></g></g><g fill="rgb(100%, 100%, 100%)" fill-opacity="1"><g transform="translate(7.408215, 45.625495)"><g><path d="M 2.605469 -0.785156 L 1.296875 -0.785156 L 1.296875 -1.441406 L 2.34375 -1.441406 L 2.34375 -2.226562 L 1.296875 -2.226562 L 1.296875 -2.878906 L 2.476562 -2.878906 L 2.34375 -3.664062 L 0.25 -3.664062 L 0.25 0 L 2.476562 0 Z M 2.605469 -0.785156 "/></g></g></g><g fill="rgb(100%, 100%, 100%)" fill-opacity="1"><g transform="translate(10.263233, 45.625495)"><g><path d="M 0.25 -3.664062 L 0.25 0 L 1.035156 0 L 1.035156 -2.199219 L 2.214844 0 L 3.390625 0 L 3.390625 -3.664062 L 2.605469 -3.664062 L 2.605469 -1.464844 L 1.429688 -3.664062 Z M 0.25 -3.664062 "/></g></g></g><g fill="rgb(100%, 100%, 100%)" fill-opacity="1"><g transform="translate(13.903257, 45.625495)"><g><path d="M 2.066406 -2.878906 L 2.980469 -2.878906 L 2.851562 -3.664062 L 0.230469 -3.664062 L 0.101562 -2.878906 L 1.015625 -2.878906 L 1.015625 0 L 2.066406 0 Z M 2.066406 -2.878906 "/></g></g></g><g fill="rgb(100%, 100%, 100%)" fill-opacity="1"><g transform="translate(16.983278, 45.625495)"><g><path d="M 1.824219 -3.785156 C 1.546875 -3.785156 1.300781 -3.726562 1.089844 -3.613281 C 0.878906 -3.503906 0.710938 -3.355469 0.570312 -3.175781 C 0.429688 -2.988281 0.324219 -2.78125 0.253906 -2.550781 C 0.183594 -2.316406 0.148438 -2.074219 0.148438 -1.835938 C 0.148438 -1.585938 0.183594 -1.34375 0.253906 -1.113281 C 0.324219 -0.878906 0.429688 -0.671875 0.570312 -0.488281 C 0.710938 -0.304688 0.878906 -0.15625 1.089844 -0.046875 C 1.300781 0.0664062 1.546875 0.121094 1.824219 0.121094 C 2.105469 0.121094 2.34375 0.0664062 2.554688 -0.046875 C 2.765625 -0.15625 2.941406 -0.304688 3.078125 -0.488281 C 3.21875 -0.671875 3.324219 -0.878906 3.394531 -1.113281 C 3.464844 -1.34375 3.5 -1.585938 3.5 -1.835938 C 3.5 -2.074219 3.464844 -2.316406 3.394531 -2.550781 C 3.324219 -2.78125 3.21875 -2.988281 3.078125 -3.175781 C 2.941406 -3.355469 2.765625 -3.503906 2.554688 -3.613281 C 2.34375 -3.726562 2.105469 -3.785156 1.824219 -3.785156 Z M 1.824219 -0.441406 C 1.753906 -0.441406 1.683594 -0.464844 1.621094 -0.519531 C 1.550781 -0.570312 1.488281 -0.65625 1.441406 -0.769531 C 1.386719 -0.878906 1.339844 -1.023438 1.308594 -1.199219 C 1.28125 -1.375 1.265625 -1.585938 1.265625 -1.835938 C 1.265625 -2.074219 1.28125 -2.285156 1.308594 -2.464844 C 1.339844 -2.640625 1.386719 -2.785156 1.441406 -2.898438 C 1.488281 -3.011719 1.550781 -3.09375 1.621094 -3.148438 C 1.683594 -3.199219 1.753906 -3.230469 1.824219 -3.230469 C 1.894531 -3.230469 1.960938 -3.199219 2.03125 -3.148438 C 2.09375 -3.09375 2.15625 -3.011719 2.210938 -2.898438 C 2.261719 -2.785156 2.304688 -2.640625 2.335938 -2.464844 C 2.363281 -2.285156 2.386719 -2.074219 2.386719 -1.835938 C 2.386719 -1.585938 2.363281 -1.375 2.335938 -1.199219 C 2.304688 -1.023438 2.261719 -0.878906 2.210938 -0.769531 C 2.15625 -0.65625 2.09375 -0.570312 2.03125 -0.519531 C 1.960938 -0.464844 1.894531 -0.441406 1.824219 -0.441406 Z M 1.824219 -0.441406 "/></g></g></g><g fill="rgb(100%, 100%, 100%)" fill-opacity="1"><g transform="translate(20.633296, 45.625495)"><g><path d="M 0.25 -3.664062 L 0.25 0 L 1.035156 0 L 1.035156 -2.199219 L 2.214844 0 L 3.390625 0 L 3.390625 -3.664062 L 2.605469 -3.664062 L 2.605469 -1.464844 L 1.429688 -3.664062 Z M 0.25 -3.664062 "/></g></g></g><g fill="rgb(100%, 100%, 100%)" fill-opacity="1"><g transform="translate(24.27332, 45.625495)"><g/></g></g><g fill="rgb(100%, 100%, 100%)" fill-opacity="1"><g transform="translate(25.773328, 45.625495)"><g><path d="M 4.175781 -3.664062 L 2.871094 -3.664062 L 2.214844 -1.375 L 1.558594 -3.664062 L 0.25 -3.664062 L 0.25 0 L 1.035156 0 L 1.035156 -1.828125 L 1.558594 0 L 2.605469 0 L 3.128906 -1.828125 L 3.128906 0 L 4.175781 0 Z M 4.175781 -3.664062 "/></g></g></g><g fill="rgb(100%, 100%, 100%)" fill-opacity="1"><g transform="translate(30.198352, 45.625495)"><g><path d="M 2.605469 -0.785156 L 1.296875 -0.785156 L 1.296875 -1.441406 L 2.34375 -1.441406 L 2.34375 -2.226562 L 1.296875 -2.226562 L 1.296875 -2.878906 L 2.476562 -2.878906 L 2.34375 -3.664062 L 0.25 -3.664062 L 0.25 0 L 2.476562 0 Z M 2.605469 -0.785156 "/></g></g></g><g fill="rgb(100%, 100%, 100%)" fill-opacity="1"><g transform="translate(33.053369, 45.625495)"><g><path d="M 2.066406 -2.878906 L 2.980469 -2.878906 L 2.851562 -3.664062 L 0.230469 -3.664062 L 0.101562 -2.878906 L 1.015625 -2.878906 L 1.015625 0 L 2.066406 0 Z M 2.066406 -2.878906 "/></g></g></g><g fill="rgb(100%, 100%, 100%)" fill-opacity="1"><g transform="translate(36.13339, 45.625495)"><g><path d="M 3.128906 0 L 2.5 -1.761719 C 2.648438 -1.839844 2.773438 -1.945312 2.863281 -2.085938 C 2.953125 -2.226562 3 -2.398438 3 -2.621094 C 3 -2.816406 2.960938 -2.980469 2.886719 -3.113281 C 2.804688 -3.246094 2.703125 -3.355469 2.574219 -3.433594 C 2.445312 -3.515625 2.289062 -3.574219 2.113281 -3.609375 C 1.941406 -3.644531 1.753906 -3.664062 1.558594 -3.664062 L 0.25 -3.664062 L 0.25 0 L 1.296875 0 L 1.296875 -1.570312 L 1.558594 -1.570312 L 2.078125 0 Z M 1.296875 -2.09375 L 1.296875 -3.140625 C 1.40625 -3.140625 1.5 -3.125 1.585938 -3.09375 C 1.671875 -3.066406 1.738281 -3.023438 1.796875 -2.976562 C 1.851562 -2.925781 1.890625 -2.871094 1.921875 -2.808594 C 1.949219 -2.746094 1.964844 -2.679688 1.964844 -2.613281 C 1.964844 -2.546875 1.949219 -2.480469 1.921875 -2.421875 C 1.890625 -2.359375 1.851562 -2.304688 1.796875 -2.253906 C 1.738281 -2.203125 1.671875 -2.171875 1.585938 -2.140625 C 1.5 -2.109375 1.40625 -2.09375 1.296875 -2.09375 Z M 1.296875 -2.09375 "/></g></g></g><g fill="rgb(100%, 100%, 100%)" fill-opacity="1"><g transform="translate(39.413409, 45.625495)"><g><path d="M 1.824219 -3.785156 C 1.546875 -3.785156 1.300781 -3.726562 1.089844 -3.613281 C 0.878906 -3.503906 0.710938 -3.355469 0.570312 -3.175781 C 0.429688 -2.988281 0.324219 -2.78125 0.253906 -2.550781 C 0.183594 -2.316406 0.148438 -2.074219 0.148438 -1.835938 C 0.148438 -1.585938 0.183594 -1.34375 0.253906 -1.113281 C 0.324219 -0.878906 0.429688 -0.671875 0.570312 -0.488281 C 0.710938 -0.304688 0.878906 -0.15625 1.089844 -0.046875 C 1.300781 0.0664062 1.546875 0.121094 1.824219 0.121094 C 2.105469 0.121094 2.34375 0.0664062 2.554688 -0.046875 C 2.765625 -0.15625 2.941406 -0.304688 3.078125 -0.488281 C 3.21875 -0.671875 3.324219 -0.878906 3.394531 -1.113281 C 3.464844 -1.34375 3.5 -1.585938 3.5 -1.835938 C 3.5 -2.074219 3.464844 -2.316406 3.394531 -2.550781 C 3.324219 -2.78125 3.21875 -2.988281 3.078125 -3.175781 C 2.941406 -3.355469 2.765625 -3.503906 2.554688 -3.613281 C 2.34375 -3.726562 2.105469 -3.785156 1.824219 -3.785156 Z M 1.824219 -0.441406 C 1.753906 -0.441406 1.683594 -0.464844 1.621094 -0.519531 C 1.550781 -0.570312 1.488281 -0.65625 1.441406 -0.769531 C 1.386719 -0.878906 1.339844 -1.023438 1.308594 -1.199219 C 1.28125 -1.375 1.265625 -1.585938 1.265625 -1.835938 C 1.265625 -2.074219 1.28125 -2.285156 1.308594 -2.464844 C 1.339844 -2.640625 1.386719 -2.785156 1.441406 -2.898438 C 1.488281 -3.011719 1.550781 -3.09375 1.621094 -3.148438 C 1.683594 -3.199219 1.753906 -3.230469 1.824219 -3.230469 C 1.894531 -3.230469 1.960938 -3.199219 2.03125 -3.148438 C 2.09375 -3.09375 2.15625 -3.011719 2.210938 -2.898438 C 2.261719 -2.785156 2.304688 -2.640625 2.335938 -2.464844 C 2.363281 -2.285156 2.386719 -2.074219 2.386719 -1.835938 C 2.386719 -1.585938 2.363281 -1.375 2.335938 -1.199219 C 2.304688 -1.023438 2.261719 -0.878906 2.210938 -0.769531 C 2.15625 -0.65625 2.09375 -0.570312 2.03125 -0.519531 C 1.960938 -0.464844 1.894531 -0.441406 1.824219 -0.441406 Z M 1.824219 -0.441406 "/></g></g></g><g fill="rgb(100%, 100%, 100%)" fill-opacity="1"><g transform="translate(43.063427, 45.625495)"><g/></g></g><g fill="rgb(100%, 100%, 100%)" fill-opacity="1"><g transform="translate(44.563434, 45.625495)"><g><path d="M 1.894531 -1.046875 L 2.195312 0 L 3.238281 0 L 2.195312 -3.664062 L 1.144531 -3.664062 L 0.101562 0 L 0.886719 0 L 1.183594 -1.046875 Z M 1.746094 -1.570312 L 1.335938 -1.570312 L 1.539062 -2.289062 Z M 1.746094 -1.570312 "/></g></g></g><g fill="rgb(100%, 100%, 100%)" fill-opacity="1"><g transform="translate(47.903452, 45.625495)"><g><path d="M 3.128906 0 L 2.5 -1.761719 C 2.648438 -1.839844 2.773438 -1.945312 2.863281 -2.085938 C 2.953125 -2.226562 3 -2.398438 3 -2.621094 C 3 -2.816406 2.960938 -2.980469 2.886719 -3.113281 C 2.804688 -3.246094 2.703125 -3.355469 2.574219 -3.433594 C 2.445312 -3.515625 2.289062 -3.574219 2.113281 -3.609375 C 1.941406 -3.644531 1.753906 -3.664062 1.558594 -3.664062 L 0.25 -3.664062 L 0.25 0 L 1.296875 0 L 1.296875 -1.570312 L 1.558594 -1.570312 L 2.078125 0 Z M 1.296875 -2.09375 L 1.296875 -3.140625 C 1.40625 -3.140625 1.5 -3.125 1.585938 -3.09375 C 1.671875 -3.066406 1.738281 -3.023438 1.796875 -2.976562 C 1.851562 -2.925781 1.890625 -2.871094 1.921875 -2.808594 C 1.949219 -2.746094 1.964844 -2.679688 1.964844 -2.613281 C 1.964844 -2.546875 1.949219 -2.480469 1.921875 -2.421875 C 1.890625 -2.359375 1.851562 -2.304688 1.796875 -2.253906 C 1.738281 -2.203125 1.671875 -2.171875 1.585938 -2.140625 C 1.5 -2.109375 1.40625 -2.09375 1.296875 -2.09375 Z M 1.296875 -2.09375 "/></g></g></g><g fill="rgb(100%, 100%, 100%)" fill-opacity="1"><g transform="translate(51.183471, 45.625495)"><g><path d="M 2.605469 -0.785156 L 1.296875 -0.785156 L 1.296875 -1.441406 L 2.34375 -1.441406 L 2.34375 -2.226562 L 1.296875 -2.226562 L 1.296875 -2.878906 L 2.476562 -2.878906 L 2.34375 -3.664062 L 0.25 -3.664062 L 0.25 0 L 2.476562 0 Z M 2.605469 -0.785156 "/></g></g></g><g fill="rgb(100%, 100%, 100%)" fill-opacity="1"><g transform="translate(54.038488, 45.625495)"><g><path d="M 1.894531 -1.046875 L 2.195312 0 L 3.238281 0 L 2.195312 -3.664062 L 1.144531 -3.664062 L 0.101562 0 L 0.886719 0 L 1.183594 -1.046875 Z M 1.746094 -1.570312 L 1.335938 -1.570312 L 1.539062 -2.289062 Z M 1.746094 -1.570312 "/></g></g></g><g fill="rgb(100%, 100%, 100%)" fill-opacity="1"><g transform="translate(57.378506, 45.625495)"><g/></g></g><g fill="rgb(100%, 100%, 100%)" fill-opacity="1"><g transform="translate(58.878513, 45.625495)"><g><path d="M 2.476562 0 L 2.34375 -0.785156 L 1.296875 -0.785156 L 1.296875 -3.664062 L 0.25 -3.664062 L 0.25 0 Z M 2.476562 0 "/></g></g></g><g fill="rgb(100%, 100%, 100%)" fill-opacity="1"><g transform="translate(61.453526, 45.625495)"><g><path d="M 1.824219 -3.785156 C 1.546875 -3.785156 1.300781 -3.726562 1.089844 -3.613281 C 0.878906 -3.503906 0.710938 -3.355469 0.570312 -3.175781 C 0.429688 -2.988281 0.324219 -2.78125 0.253906 -2.550781 C 0.183594 -2.316406 0.148438 -2.074219 0.148438 -1.835938 C 0.148438 -1.585938 0.183594 -1.34375 0.253906 -1.113281 C 0.324219 -0.878906 0.429688 -0.671875 0.570312 -0.488281 C 0.710938 -0.304688 0.878906 -0.15625 1.089844 -0.046875 C 1.300781 0.0664062 1.546875 0.121094 1.824219 0.121094 C 2.105469 0.121094 2.34375 0.0664062 2.554688 -0.046875 C 2.765625 -0.15625 2.941406 -0.304688 3.078125 -0.488281 C 3.21875 -0.671875 3.324219 -0.878906 3.394531 -1.113281 C 3.464844 -1.34375 3.5 -1.585938 3.5 -1.835938 C 3.5 -2.074219 3.464844 -2.316406 3.394531 -2.550781 C 3.324219 -2.78125 3.21875 -2.988281 3.078125 -3.175781 C 2.941406 -3.355469 2.765625 -3.503906 2.554688 -3.613281 C 2.34375 -3.726562 2.105469 -3.785156 1.824219 -3.785156 Z M 1.824219 -0.441406 C 1.753906 -0.441406 1.683594 -0.464844 1.621094 -0.519531 C 1.550781 -0.570312 1.488281 -0.65625 1.441406 -0.769531 C 1.386719 -0.878906 1.339844 -1.023438 1.308594 -1.199219 C 1.28125 -1.375 1.265625 -1.585938 1.265625 -1.835938 C 1.265625 -2.074219 1.28125 -2.285156 1.308594 -2.464844 C 1.339844 -2.640625 1.386719 -2.785156 1.441406 -2.898438 C 1.488281 -3.011719 1.550781 -3.09375 1.621094 -3.148438 C 1.683594 -3.199219 1.753906 -3.230469 1.824219 -3.230469 C 1.894531 -3.230469 1.960938 -3.199219 2.03125 -3.148438 C 2.09375 -3.09375 2.15625 -3.011719 2.210938 -2.898438 C 2.261719 -2.785156 2.304688 -2.640625 2.335938 -2.464844 C 2.363281 -2.285156 2.386719 -2.074219 2.386719 -1.835938 C 2.386719 -1.585938 2.363281 -1.375 2.335938 -1.199219 C 2.304688 -1.023438 2.261719 -0.878906 2.210938 -0.769531 C 2.15625 -0.65625 2.09375 -0.570312 2.03125 -0.519531 C 1.960938 -0.464844 1.894531 -0.441406 1.824219 -0.441406 Z M 1.824219 -0.441406 "/></g></g></g><g fill="rgb(100%, 100%, 100%)" fill-opacity="1"><g transform="translate(65.103544, 45.625495)"><g><path d="M 1.980469 -0.523438 C 1.851562 -0.523438 1.734375 -0.558594 1.636719 -0.636719 C 1.535156 -0.710938 1.453125 -0.808594 1.390625 -0.933594 C 1.324219 -1.054688 1.273438 -1.195312 1.246094 -1.355469 C 1.210938 -1.511719 1.195312 -1.671875 1.195312 -1.835938 C 1.195312 -1.996094 1.210938 -2.15625 1.246094 -2.308594 C 1.273438 -2.464844 1.324219 -2.605469 1.390625 -2.730469 C 1.453125 -2.851562 1.535156 -2.949219 1.636719 -3.023438 C 1.734375 -3.101562 1.851562 -3.140625 1.980469 -3.140625 C 2.074219 -3.140625 2.164062 -3.113281 2.246094 -3.074219 C 2.324219 -3.035156 2.394531 -2.988281 2.453125 -2.945312 C 2.519531 -2.886719 2.578125 -2.820312 2.636719 -2.75 L 3.03125 -3.140625 C 2.945312 -3.234375 2.84375 -3.320312 2.734375 -3.398438 C 2.636719 -3.464844 2.515625 -3.523438 2.363281 -3.578125 C 2.214844 -3.636719 2.046875 -3.664062 1.851562 -3.664062 C 1.566406 -3.664062 1.316406 -3.609375 1.105469 -3.503906 C 0.894531 -3.398438 0.714844 -3.261719 0.574219 -3.089844 C 0.433594 -2.914062 0.324219 -2.71875 0.253906 -2.5 C 0.183594 -2.28125 0.148438 -2.054688 0.148438 -1.824219 C 0.148438 -1.59375 0.183594 -1.371094 0.253906 -1.148438 C 0.324219 -0.929688 0.429688 -0.738281 0.570312 -0.570312 C 0.710938 -0.398438 0.890625 -0.261719 1.105469 -0.15625 C 1.316406 -0.0507812 1.566406 0 1.851562 0 C 2.046875 0 2.214844 -0.0234375 2.363281 -0.078125 C 2.515625 -0.128906 2.636719 -0.191406 2.734375 -0.261719 C 2.84375 -0.335938 2.945312 -0.425781 3.03125 -0.523438 L 2.636719 -0.914062 C 2.578125 -0.839844 2.519531 -0.773438 2.453125 -0.71875 C 2.394531 -0.671875 2.324219 -0.625 2.246094 -0.585938 C 2.164062 -0.546875 2.074219 -0.523438 1.980469 -0.523438 Z M 1.980469 -0.523438 "/></g></g></g><g fill="rgb(100%, 100%, 100%)" fill-opacity="1"><g transform="translate(68.283561, 45.625495)"><g><path d="M 1.894531 -1.046875 L 2.195312 0 L 3.238281 0 L 2.195312 -3.664062 L 1.144531 -3.664062 L 0.101562 0 L 0.886719 0 L 1.183594 -1.046875 Z M 1.746094 -1.570312 L 1.335938 -1.570312 L 1.539062 -2.289062 Z M 1.746094 -1.570312 "/></g></g></g><g fill="rgb(100%, 100%, 100%)" fill-opacity="1"><g transform="translate(71.623579, 45.625495)"><g><path d="M 2.476562 0 L 2.34375 -0.785156 L 1.296875 -0.785156 L 1.296875 -3.664062 L 0.25 -3.664062 L 0.25 0 Z M 2.476562 0 "/></g></g></g></svg>